<svg width="332" height="84" viewBox="0 0 332 84" fill="none" xmlns="http://www.w3.org/2000/svg">
<path d="M98.8321 83.461C89.0473 83.461 79.2626 83.4039 69.4819 83.5058C67.4244 83.5261 66.7126 83.074 66.7208 80.8745C66.8108 61.4533 66.7944 42.0322 66.7371 22.6069C66.733 20.7088 67.1748 19.9919 69.2406 20.0001C88.9983 20.0734 108.756 20.0652 128.518 20.0082C130.363 20.0041 131.025 20.5051 130.972 22.3911C130.849 26.6313 130.853 30.8797 130.972 35.1158C131.025 36.9773 130.428 37.4864 128.55 37.4783C115.158 37.3968 101.761 37.4335 88.3683 37.4376C85.7176 37.4376 84.1836 40.1137 85.4803 42.5047C86.0776 43.6044 87.1738 43.1116 88.0329 43.1156C101.237 43.1482 114.442 43.2012 127.642 43.0831C130.17 43.0586 131.168 43.5922 130.997 46.3009C130.751 50.1501 130.821 54.0319 130.98 57.8933C131.066 60.0073 130.408 60.6102 128.264 60.5939C114.965 60.4961 101.667 60.545 88.3683 60.545C85.738 60.545 84.1672 63.327 85.5049 65.6284C86.1266 66.6956 87.2147 66.2027 88.082 66.2027C101.286 66.2394 114.491 66.2964 127.691 66.1701C130.256 66.1457 131.168 66.7444 131.001 69.4083C130.759 73.2575 130.841 77.1393 130.98 81.0007C131.05 82.9355 130.547 83.5465 128.477 83.518C118.598 83.3958 108.719 83.461 98.8403 83.461" fill="#EED1C0"/>
<path d="M0.000464284 81.2651C-0.0118076 82.9351 0.327713 83.538 2.1644 83.5339C22.1143 83.4687 42.0642 83.4687 62.0101 83.5298C63.8345 83.5339 64.2313 82.8985 64.1904 81.2407C64.0881 77.0941 64.0267 72.9394 64.2108 68.7969C64.309 66.6341 63.6299 66.1412 61.5192 66.1575C48.1265 66.2552 34.7298 66.1534 21.3371 66.2593C19.0873 66.2797 18.5105 65.6809 18.5269 63.4651C18.6332 49.7953 18.5514 36.1215 18.6168 22.4517C18.625 20.6921 18.3019 19.9426 16.3138 20.0037C11.6628 20.1504 7.00359 20.1463 2.35257 20.0037C0.393163 19.9426 -0.0158982 20.6269 0.000464284 22.4314C0.0822765 32.142 0.0372797 41.8525 0.0372797 51.5672C0.0372797 61.2818 0.0740953 71.3671 0.000464284 81.2651Z" fill="#EED1C0"/>
<path d="M197.792 81.0008C197.8 83.0333 197.134 83.4854 195.203 83.4814C175.551 83.4203 155.9 83.4121 136.249 83.4895C134.163 83.4977 133.496 83.0293 133.52 80.8582C133.643 71.0621 133.574 61.2619 133.574 51.4617C133.574 41.6615 133.643 32.2402 133.52 22.6314C133.492 20.4563 134.167 19.992 136.249 20.0001C155.9 20.0775 175.551 20.0734 195.203 20.0083C197.138 20.0042 197.796 20.4604 197.788 22.4929C197.714 41.9955 197.714 61.5022 197.788 81.0049M179.192 63.8647C179.106 55.7753 179.127 47.6818 179.18 39.5923C179.188 38.1056 178.893 37.4009 177.175 37.4172C169.497 37.4946 161.819 37.4987 154.141 37.4172C152.382 37.3969 152.137 38.1749 152.157 39.629C152.223 43.58 152.182 47.5311 152.182 51.4821C152.182 55.5268 152.251 59.5756 152.149 63.6162C152.104 65.3514 152.493 66.1131 154.464 66.0846C161.95 65.9787 169.44 65.9991 176.93 66.0765C178.644 66.0968 179.213 65.6162 179.192 63.8647Z" fill="#EED1C0"/>
<path d="M331.311 21.6355C331.184 31.4357 331.254 41.244 331.254 51.0483C331.254 60.8525 331.201 70.6568 331.299 80.461C331.319 82.4529 330.984 83.2268 328.709 83.2145C308.956 83.1168 289.198 83.1372 269.441 83.1942C267.608 83.1983 267.031 82.7706 267.035 80.8561C267.109 61.0603 267.113 41.2644 267.035 21.4644C267.027 19.4074 267.69 19.0042 269.608 19.0082C289.268 19.0734 308.931 19.0816 328.591 19.0001C330.677 18.992 331.34 19.4482 331.311 21.6314M312.703 38.6046C312.752 36.9101 312.327 36.348 310.514 36.3724C302.922 36.4783 295.326 36.462 287.73 36.3806C286.114 36.3643 285.648 36.8164 285.664 38.4253C285.742 46.7184 285.733 55.0115 285.664 63.3005C285.652 64.7547 286.024 65.2231 287.546 65.2068C295.236 65.1294 302.926 65.1294 310.613 65.2068C312.183 65.2231 312.744 64.8321 312.699 63.1946C312.584 59.1458 312.662 55.093 312.662 51.0401C312.662 46.9873 312.584 42.747 312.699 38.6046" fill="#EED1C0"/>
<path d="M264.533 22.4688C264.549 19.9678 263.923 19.3487 261.412 19.3732C248.027 19.5076 234.643 19.4057 221.254 19.4709C219.446 19.4791 218.783 19.0717 218.841 17.137C218.988 12.2409 218.808 7.33677 218.931 2.44075C218.98 0.615946 218.513 -0.0357802 216.591 0.0253182C212.226 0.155662 207.853 0.204541 203.493 0.0130991C201.071 -0.0968781 200.265 0.448935 200.294 3.0558C200.445 15.9639 200.363 28.8719 200.363 41.78C200.363 54.688 200.412 67.7876 200.314 80.7893C200.298 82.8829 200.817 83.4776 202.985 83.4695C222.448 83.3799 241.908 83.3717 261.371 83.4736C263.813 83.4858 264.553 83.0051 264.537 80.4186C264.406 61.1034 264.414 41.7881 264.529 22.4729M243.908 65.531C236.234 65.4495 228.556 65.4454 220.878 65.531C219.217 65.5473 218.841 64.9974 218.853 63.4496C218.922 55.1728 218.914 46.896 218.857 38.6192C218.849 37.1935 219.209 36.6599 220.747 36.6722C228.515 36.7455 236.287 36.7455 244.059 36.6722C245.622 36.6559 245.961 37.2302 245.937 38.6355C245.863 42.7739 245.912 46.9123 245.912 51.0507C245.912 55.1891 245.843 59.3275 245.949 63.4659C245.986 65.0463 245.544 65.5473 243.904 65.5269" fill="#EED1C0"/>
</svg>
