<svg width="163" height="41" viewBox="0 0 163 41" fill="none" xmlns="http://www.w3.org/2000/svg">
<path d="M48.8575 40.9642C44.055 40.9642 39.2525 40.9362 34.4519 40.9862C33.442 40.9962 33.0927 40.7743 33.0967 39.6947C33.1409 30.1625 33.1329 20.6302 33.1047 11.0959C33.1027 10.1643 33.3196 9.81244 34.3335 9.81644C44.0309 9.85243 53.7283 9.84843 63.4278 9.82044C64.3333 9.81844 64.6585 10.0643 64.6324 10.99C64.5722 13.0712 64.5742 15.1563 64.6324 17.2355C64.6585 18.1492 64.3654 18.3991 63.4438 18.3951C56.8705 18.3551 50.2951 18.3731 43.7217 18.3751C42.4207 18.3751 41.6678 19.6886 42.3043 20.8621C42.5974 21.4019 43.1355 21.16 43.5571 21.162C50.0381 21.178 56.5191 21.204 62.9981 21.146C64.2389 21.134 64.7288 21.3959 64.6445 22.7254C64.524 24.6146 64.5582 26.5199 64.6365 28.4152C64.6786 29.4527 64.3554 29.7486 63.3033 29.7406C56.7761 29.6927 50.2489 29.7166 43.7217 29.7166C42.4307 29.7166 41.6598 31.0821 42.3163 32.2117C42.6215 32.7355 43.1555 32.4936 43.5812 32.4936C50.0622 32.5116 56.5432 32.5395 63.0222 32.4776C64.2811 32.4656 64.7288 32.7595 64.6465 34.0669C64.528 35.9562 64.5682 37.8615 64.6365 39.7567C64.6706 40.7063 64.4236 41.0062 63.4077 40.9922C58.559 40.9323 53.7103 40.9642 48.8616 40.9642" fill="#EED1C0"/>
<path d="M0.349837 39.8865C0.343814 40.7061 0.510457 41.002 1.41194 41C11.2037 40.968 20.9955 40.968 30.7853 40.998C31.6808 41 31.8755 40.6881 31.8554 39.8745C31.8052 37.8393 31.7751 35.8001 31.8655 33.7669C31.9137 32.7053 31.5804 32.4634 30.5444 32.4714C23.971 32.5193 17.3956 32.4694 10.8223 32.5213C9.718 32.5313 9.4349 32.2375 9.44293 31.1499C9.49514 24.4405 9.45498 17.7291 9.48711 11.0198C9.49112 10.1561 9.33251 9.78825 8.35674 9.81824C6.07393 9.89021 3.7871 9.88821 1.50429 9.81824C0.542581 9.78825 0.341806 10.1241 0.349837 11.0098C0.389992 15.7759 0.367907 20.542 0.367907 25.3102C0.367907 30.0783 0.385977 35.0284 0.349837 39.8865Z" fill="#EED1C0"/>
<path d="M97.43 39.7567C97.434 40.7543 97.1067 40.9762 96.1591 40.9743C86.5138 40.9443 76.8686 40.9403 67.2234 40.9783C66.1994 40.9823 65.8722 40.7523 65.8842 39.6868C65.9444 34.8786 65.9103 30.0685 65.9103 25.2584C65.9103 20.4483 65.9444 15.8241 65.8842 11.108C65.8702 10.0404 66.2014 9.81246 67.2234 9.81646C76.8686 9.85444 86.5138 9.85244 96.1591 9.82046C97.1087 9.81846 97.432 10.0424 97.428 11.04C97.3918 20.6122 97.3918 30.1865 97.428 39.7587M88.3007 31.346C88.2586 27.3756 88.2686 23.4031 88.2947 19.4327C88.2987 18.703 88.1542 18.3571 87.3109 18.3651C83.5424 18.4031 79.7738 18.4051 76.0053 18.3651C75.1419 18.3551 75.0215 18.737 75.0315 19.4507C75.0636 21.3899 75.0436 23.3292 75.0436 25.2684C75.0436 27.2536 75.0777 29.2408 75.0275 31.2241C75.0054 32.0757 75.1962 32.4496 76.1639 32.4356C79.8381 32.3836 83.5143 32.3936 87.1905 32.4316C88.0317 32.4416 88.3108 32.2057 88.3007 31.346Z" fill="#EED1C0"/>
<path d="M162.964 10.6187C162.902 15.4289 162.936 20.243 162.936 25.0551C162.936 29.8672 162.91 34.6793 162.958 39.4914C162.968 40.469 162.803 40.8489 161.687 40.8429C151.991 40.7949 142.294 40.8049 132.597 40.8329C131.697 40.8349 131.414 40.625 131.416 39.6853C131.452 29.9692 131.454 20.253 131.416 10.5348C131.412 9.52517 131.737 9.32724 132.679 9.32924C142.328 9.36123 151.979 9.36523 161.629 9.32525C162.653 9.32125 162.978 9.54516 162.964 10.6167M153.831 18.9475C153.855 18.1158 153.646 17.8399 152.756 17.8519C149.03 17.9039 145.302 17.8959 141.573 17.8559C140.78 17.8479 140.551 18.0698 140.559 18.8595C140.597 22.9299 140.593 27.0003 140.559 31.0687C140.553 31.7824 140.736 32.0124 141.483 32.0044C145.257 31.9664 149.032 31.9664 152.805 32.0044C153.576 32.0124 153.851 31.8204 153.829 31.0167C153.772 29.0295 153.81 27.0403 153.81 25.0511C153.81 23.0619 153.772 20.9807 153.829 18.9475" fill="#EED1C0"/>
<path d="M130.186 11.0281C130.194 9.80059 129.887 9.49671 128.654 9.50871C122.085 9.57468 115.516 9.5247 108.944 9.55669C108.057 9.56069 107.732 9.36077 107.76 8.41114C107.832 6.00808 107.744 3.60103 107.804 1.19797C107.828 0.302318 107.599 -0.0175616 106.655 0.0124267C104.513 0.0764016 102.367 0.100392 100.227 0.00642926C99.0381 -0.0475496 98.6426 0.220346 98.6566 1.49984C98.7309 7.83536 98.6907 14.1709 98.6907 20.5064C98.6907 26.8419 98.7148 33.2714 98.6666 39.6529C98.6586 40.6805 98.9136 40.9724 99.9777 40.9684C109.531 40.9244 119.081 40.9204 128.634 40.9704C129.833 40.9764 130.196 40.7405 130.188 39.471C130.124 29.9907 130.128 20.5104 130.184 11.0301M120.063 32.1638C116.297 32.1239 112.528 32.1218 108.76 32.1638C107.944 32.1718 107.76 31.9019 107.766 31.1422C107.8 27.0798 107.796 23.0174 107.768 18.955C107.764 18.2553 107.94 17.9934 108.695 17.9994C112.508 18.0354 116.323 18.0354 120.138 17.9994C120.904 17.9914 121.071 18.2733 121.059 18.963C121.023 20.9942 121.047 23.0254 121.047 25.0566C121.047 27.0878 121.013 29.119 121.065 31.1502C121.083 31.9259 120.866 32.1718 120.061 32.1618" fill="#EED1C0"/>
</svg>
