<svg width="14" height="14" viewBox="0 0 14 14" fill="none" xmlns="http://www.w3.org/2000/svg">
<path d="M13.9998 0.574585C13.9722 2.71121 13.9873 4.84961 13.9873 6.98712C13.9873 9.12463 13.9758 11.2621 13.9971 13.3997C14.0016 13.8339 13.9285 14.0026 13.4332 14C9.13067 13.9787 4.82729 13.9831 0.523906 13.9955C0.124752 13.9964 -0.000874699 13.9032 1.62694e-05 13.4858C0.0160537 9.16992 0.0169447 4.85405 1.62694e-05 0.537286C-0.00176567 0.0888261 0.142572 0.000910251 0.560436 0.00179829C4.84243 0.0160069 9.12532 0.017784 13.4073 2.31871e-05C13.8617 -0.00175289 14.006 0.0977068 13.9998 0.573696M9.94679 4.27416C9.95748 3.90473 9.86482 3.78218 9.47012 3.78751C7.81649 3.8106 6.16196 3.80705 4.50743 3.78929C4.1555 3.78573 4.05393 3.88431 4.05749 4.23508C4.07442 6.04313 4.07264 7.85118 4.05749 9.65834C4.05482 9.97537 4.13589 10.0775 4.46733 10.0739C6.14235 10.0571 7.81738 10.0571 9.49151 10.0739C9.83364 10.0775 9.9557 9.99225 9.9459 9.63525C9.92095 8.75254 9.93788 7.86894 9.93788 6.98534C9.93788 6.10174 9.92095 5.17729 9.9459 4.27416" fill="#EED1C0"/>
</svg>
