<svg width="21" height="22" viewBox="0 0 21 22" fill="none" xmlns="http://www.w3.org/2000/svg">
<mask id="mask0_2_1428" style="mask-type:alpha" maskUnits="userSpaceOnUse" x="0" y="0" width="21" height="22">
<rect y="0.0400391" width="21" height="21" fill="#D9D9D9"/>
</mask>
<g mask="url(#mask0_2_1428)">
<path d="M7 12.1892C6.81946 12.1892 6.6621 12.1222 6.52794 11.9882C6.39392 11.8542 6.32691 11.6969 6.32691 11.5163C6.32691 11.3357 6.39392 11.1783 6.52794 11.0443C6.6621 10.9103 6.81946 10.8433 7 10.8433C7.18054 10.8433 7.3379 10.9103 7.47206 11.0443C7.60608 11.1783 7.67309 11.3357 7.67309 11.5163C7.67309 11.6969 7.60608 11.8542 7.47206 11.9882C7.3379 12.1222 7.18054 12.1892 7 12.1892ZM10.5 12.1892C10.3195 12.1892 10.1621 12.1222 10.0279 11.9882C9.89392 11.8542 9.82691 11.6969 9.82691 11.5163C9.82691 11.3357 9.89392 11.1783 10.0279 11.0443C10.1621 10.9103 10.3195 10.8433 10.5 10.8433C10.6805 10.8433 10.8379 10.9103 10.9721 11.0443C11.1061 11.1783 11.1731 11.3357 11.1731 11.5163C11.1731 11.6969 11.1061 11.8542 10.9721 11.9882C10.8379 12.1222 10.6805 12.1892 10.5 12.1892ZM14 12.1892C13.8195 12.1892 13.6621 12.1222 13.5279 11.9882C13.3939 11.8542 13.3269 11.6969 13.3269 11.5163C13.3269 11.3357 13.3939 11.1783 13.5279 11.0443C13.6621 10.9103 13.8195 10.8433 14 10.8433C14.1805 10.8433 14.3379 10.9103 14.4721 11.0443C14.6061 11.1783 14.6731 11.3357 14.6731 11.5163C14.6731 11.6969 14.6061 11.8542 14.4721 11.9882C14.3379 12.1222 14.1805 12.1892 14 12.1892ZM4.91356 18.4153C4.51077 18.4153 4.17448 18.2804 3.90469 18.0106C3.6349 17.7408 3.5 17.4045 3.5 17.0017V5.82885C3.5 5.42606 3.6349 5.08976 3.90469 4.81997C4.17448 4.55018 4.51077 4.41528 4.91356 4.41528H6.46144V2.46338H7.40381V4.41528H13.6636V2.46338H14.5386V4.41528H16.0864C16.4892 4.41528 16.8255 4.55018 17.0953 4.81997C17.3651 5.08976 17.5 5.42606 17.5 5.82885V17.0017C17.5 17.4045 17.3651 17.7408 17.0953 18.0106C16.8255 18.2804 16.4892 18.4153 16.0864 18.4153H4.91356ZM4.91356 17.5403H16.0864C16.2212 17.5403 16.3446 17.4842 16.4568 17.3721C16.5689 17.2599 16.625 17.1365 16.625 17.0017V9.32885H4.375V17.0017C4.375 17.1365 4.43107 17.2599 4.54322 17.3721C4.65536 17.4842 4.77881 17.5403 4.91356 17.5403ZM4.375 8.45363H16.625V5.82885C16.625 5.6941 16.5689 5.57065 16.4568 5.4585C16.3446 5.34636 16.2212 5.29028 16.0864 5.29028H4.91356C4.77881 5.29028 4.65536 5.34636 4.54322 5.4585C4.43107 5.57065 4.375 5.6941 4.375 5.82885V8.45363Z" fill="#EED1C0"/>
</g>
</svg>
