<svg width="39" height="40" viewBox="0 0 39 40" fill="none" xmlns="http://www.w3.org/2000/svg">
<rect opacity="0.15" width="39" height="40" rx="5" fill="#EED1C0"/>
<mask id="mask0_2_1390" style="mask-type:alpha" maskUnits="userSpaceOnUse" x="2" y="2" width="36" height="36">
<rect x="2" y="2" width="35.0803" height="35.0803" fill="#D9D9D9"/>
</mask>
<g mask="url(#mask0_2_1390)">
<path d="M13.6934 22.2948C13.3918 22.2948 13.1289 22.1828 12.9048 21.959C12.6809 21.7351 12.569 21.4723 12.569 21.1707C12.569 20.8689 12.6809 20.6061 12.9048 20.3822C13.1289 20.1583 13.3918 20.0464 13.6934 20.0464C13.995 20.0464 14.2578 20.1583 14.482 20.3822C14.7059 20.6061 14.8178 20.8689 14.8178 21.1707C14.8178 21.4723 14.7059 21.7351 14.482 21.959C14.2578 22.1828 13.995 22.2948 13.6934 22.2948ZM19.5401 22.2948C19.2385 22.2948 18.9757 22.1828 18.7515 21.959C18.5277 21.7351 18.4157 21.4723 18.4157 21.1707C18.4157 20.8689 18.5277 20.6061 18.7515 20.3822C18.9757 20.1583 19.2385 20.0464 19.5401 20.0464C19.8417 20.0464 20.1046 20.1583 20.3287 20.3822C20.5526 20.6061 20.6645 20.8689 20.6645 21.1707C20.6645 21.4723 20.5526 21.7351 20.3287 21.959C20.1046 22.1828 19.8417 22.2948 19.5401 22.2948ZM25.3868 22.2948C25.0852 22.2948 24.8224 22.1828 24.5983 21.959C24.3744 21.7351 24.2624 21.4723 24.2624 21.1707C24.2624 20.8689 24.3744 20.6061 24.5983 20.3822C24.8224 20.1583 25.0852 20.0464 25.3868 20.0464C25.6884 20.0464 25.9513 20.1583 26.1754 20.3822C26.3993 20.6061 26.5112 20.8689 26.5112 21.1707C26.5112 21.4723 26.3993 21.7351 26.1754 21.959C25.9513 22.1828 25.6884 22.2948 25.3868 22.2948ZM10.208 32.6954C9.53516 32.6954 8.97339 32.47 8.52271 32.0193C8.07202 31.5686 7.84668 31.0069 7.84668 30.334V11.6698C7.84668 10.997 8.07202 10.4352 8.52271 9.98452C8.97339 9.53383 9.53516 9.30849 10.208 9.30849H12.7937V6.04785H14.368V9.30849H24.8248V6.04785H26.2865V9.30849H28.8722C29.5451 9.30849 30.1068 9.53383 30.5575 9.98452C31.0082 10.4352 31.2335 10.997 31.2335 11.6698V30.334C31.2335 31.0069 31.0082 31.5686 30.5575 32.0193C30.1068 32.47 29.5451 32.6954 28.8722 32.6954H10.208ZM10.208 31.2337H28.8722C29.0973 31.2337 29.3035 31.14 29.4909 30.9527C29.6782 30.7653 29.7719 30.5591 29.7719 30.334V17.5166H9.30836V30.334C9.30836 30.5591 9.40203 30.7653 9.58937 30.9527C9.77671 31.14 9.98292 31.2337 10.208 31.2337ZM9.30836 16.0545H29.7719V11.6698C29.7719 11.4447 29.6782 11.2385 29.4909 11.0512C29.3035 10.8638 29.0973 10.7702 28.8722 10.7702H10.208C9.98292 10.7702 9.77671 10.8638 9.58937 11.0512C9.40203 11.2385 9.30836 11.4447 9.30836 11.6698V16.0545Z" fill="#EED1C0"/>
</g>
</svg>
