<svg width="39" height="40" viewBox="0 0 39 40" fill="none" xmlns="http://www.w3.org/2000/svg">
<rect opacity="0.15" width="39" height="40" rx="5" fill="#EED1C0"/>
<mask id="mask0_2_1537" style="mask-type:alpha" maskUnits="userSpaceOnUse" x="2" y="2" width="36" height="36">
<rect x="2" y="2" width="35.08" height="35.08" fill="#D9D9D9"/>
</mask>
<g mask="url(#mask0_2_1537)">
<path d="M18.8089 26.1173H20.2706V18.0781H18.8089V26.1173ZM19.5398 15.9981C19.7946 15.9981 20.0082 15.9119 20.1807 15.7394C20.3532 15.567 20.4394 15.3533 20.4394 15.0985C20.4394 14.8437 20.3532 14.63 20.1807 14.4576C20.0082 14.2853 19.7946 14.1992 19.5398 14.1992C19.2849 14.1992 19.0713 14.2853 18.8988 14.4576C18.7263 14.63 18.6401 14.8437 18.6401 15.0985C18.6401 15.3533 18.7263 15.567 18.8988 15.7394C19.0713 15.9119 19.2849 15.9981 19.5398 15.9981ZM19.5445 32.6948C17.7255 32.6948 16.0152 32.3496 14.4137 31.6592C12.8124 30.9688 11.4195 30.0319 10.2348 28.8484C9.05012 27.6649 8.11233 26.2732 7.42145 24.6731C6.73033 23.0733 6.38477 21.3638 6.38477 19.5445C6.38477 17.7255 6.72996 16.0152 7.42036 14.4137C8.11075 12.8124 9.04768 11.4195 10.2311 10.2348C11.4146 9.05011 12.8064 8.11233 14.4064 7.42145C16.0062 6.73033 17.7157 6.38477 19.535 6.38477C21.3541 6.38477 23.0643 6.72996 24.6658 7.42036C26.2671 8.11075 27.6601 9.04768 28.8447 10.2311C30.0294 11.4146 30.9672 12.8064 31.6581 14.4064C32.3492 16.0062 32.6948 17.7157 32.6948 19.535C32.6948 21.3541 32.3496 23.0643 31.6592 24.6658C30.9688 26.2671 30.0319 27.6601 28.8484 28.8447C27.6649 30.0294 26.2732 30.9672 24.6731 31.6581C23.0733 32.3492 21.3638 32.6948 19.5445 32.6948ZM19.5398 31.2331C22.8042 31.2331 25.5691 30.1003 27.8347 27.8347C30.1003 25.5691 31.2331 22.8042 31.2331 19.5398C31.2331 16.2754 30.1003 13.5104 27.8347 11.2448C25.5691 8.97922 22.8042 7.84643 19.5398 7.84643C16.2754 7.84643 13.5104 8.97922 11.2448 11.2448C8.97922 13.5104 7.84643 16.2754 7.84643 19.5398C7.84643 22.8042 8.97922 25.5691 11.2448 27.8347C13.5104 30.1003 16.2754 31.2331 19.5398 31.2331Z" fill="#EED1C0"/>
</g>
</svg>
