<svg width="36" height="36" viewBox="0 0 36 36" fill="none" xmlns="http://www.w3.org/2000/svg">
<g opacity="0.4">
<mask id="mask0_2_1406" style="mask-type:alpha" maskUnits="userSpaceOnUse" x="0" y="0" width="36" height="36">
<rect width="35.08" height="35.08" fill="#D9D9D9"/>
</mask>
<g mask="url(#mask0_2_1406)">
<path d="M16.8089 24.1173H18.2706V16.0781H16.8089V24.1173ZM17.5398 13.9981C17.7946 13.9981 18.0082 13.9119 18.1807 13.7394C18.3532 13.567 18.4394 13.3533 18.4394 13.0985C18.4394 12.8437 18.3532 12.63 18.1807 12.4576C18.0082 12.2853 17.7946 12.1992 17.5398 12.1992C17.2849 12.1992 17.0713 12.2853 16.8988 12.4576C16.7263 12.63 16.6401 12.8437 16.6401 13.0985C16.6401 13.3533 16.7263 13.567 16.8988 13.7394C17.0713 13.9119 17.2849 13.9981 17.5398 13.9981ZM17.5445 30.6948C15.7255 30.6948 14.0152 30.3496 12.4137 29.6592C10.8124 28.9688 9.41948 28.0319 8.2348 26.8484C7.05012 25.6649 6.11233 24.2732 5.42145 22.6731C4.73033 21.0733 4.38477 19.3638 4.38477 17.5445C4.38477 15.7255 4.72996 14.0152 5.42036 12.4137C6.11075 10.8124 7.04768 9.41948 8.23114 8.2348C9.4146 7.05011 10.8064 6.11233 12.4064 5.42145C14.0062 4.73033 15.7157 4.38477 17.535 4.38477C19.3541 4.38477 21.0643 4.72996 22.6658 5.42036C24.2671 6.11075 25.6601 7.04768 26.8447 8.23114C28.0294 9.4146 28.9672 10.8064 29.6581 12.4064C30.3492 14.0062 30.6948 15.7157 30.6948 17.535C30.6948 19.3541 30.3496 21.0643 29.6592 22.6658C28.9688 24.2671 28.0319 25.6601 26.8484 26.8447C25.6649 28.0294 24.2732 28.9672 22.6731 29.6581C21.0733 30.3492 19.3638 30.6948 17.5445 30.6948ZM17.5398 29.2331C20.8042 29.2331 23.5691 28.1003 25.8347 25.8347C28.1003 23.5691 29.2331 20.8042 29.2331 17.5398C29.2331 14.2754 28.1003 11.5104 25.8347 9.24481C23.5691 6.97922 20.8042 5.84643 17.5398 5.84643C14.2754 5.84643 11.5104 6.97922 9.24481 9.24481C6.97922 11.5104 5.84643 14.2754 5.84643 17.5398C5.84643 20.8042 6.97922 23.5691 9.24481 25.8347C11.5104 28.1003 14.2754 29.2331 17.5398 29.2331Z" fill="#EED1C0"/>
</g>
</g>
</svg>
