<svg width="39" height="40" viewBox="0 0 39 40" fill="none" xmlns="http://www.w3.org/2000/svg">
<rect opacity="0.15" width="39" height="40" rx="5" fill="#EED1C0"/>
<mask id="mask0_2_1476" style="mask-type:alpha" maskUnits="userSpaceOnUse" x="2" y="2" width="36" height="36">
<rect x="2" y="2" width="35.0803" height="35.0803" fill="#D9D9D9"/>
</mask>
<g mask="url(#mask0_2_1476)">
<path d="M19.5394 18.6407C18.3335 18.6407 17.3012 18.2113 16.4424 17.3526C15.5837 16.4938 15.1543 15.4615 15.1543 14.2556C15.1543 13.0498 15.5837 12.0174 16.4424 11.1587C17.3012 10.3 18.3335 9.87061 19.5394 9.87061C20.7453 9.87061 21.7776 10.3 22.6363 11.1587C23.495 12.0174 23.9244 13.0498 23.9244 14.2556C23.9244 15.4615 23.495 16.4938 22.6363 17.3526C21.7776 18.2113 20.7453 18.6407 19.5394 18.6407ZM9.30762 29.2101V26.8038C9.30762 26.2004 9.48326 25.6358 9.83455 25.1101C10.1861 24.5846 10.6588 24.1765 11.2527 23.8859C12.6321 23.2245 14.0123 22.7284 15.3933 22.3976C16.7744 22.067 18.1564 21.9017 19.5394 21.9017C20.9224 21.9017 22.3044 22.067 23.6854 22.3976C25.0665 22.7284 26.4467 23.2245 27.826 23.8859C28.4199 24.1765 28.8927 24.5846 29.2442 25.1101C29.5955 25.6358 29.7711 26.2004 29.7711 26.8038V29.2101H9.30762ZM10.7693 27.7484H28.3094V26.8038C28.3094 26.4795 28.2049 26.175 27.9959 25.8902C27.7871 25.6055 27.4981 25.3646 27.1288 25.1678C25.9258 24.5851 24.6855 24.1387 23.4077 23.8285C22.13 23.5184 20.8405 23.3634 19.5394 23.3634C18.2382 23.3634 16.9488 23.5184 15.671 23.8285C14.3933 24.1387 13.1529 24.5851 11.95 25.1678C11.5807 25.3646 11.2916 25.6055 11.0828 25.8902C10.8738 26.175 10.7693 26.4795 10.7693 26.8038V27.7484ZM19.5394 17.179C20.3433 17.179 21.0315 16.8928 21.604 16.3203C22.1765 15.7478 22.4627 15.0596 22.4627 14.2556C22.4627 13.4517 22.1765 12.7635 21.604 12.191C21.0315 11.6185 20.3433 11.3323 19.5394 11.3323C18.7354 11.3323 18.0472 11.6185 17.4747 12.191C16.9023 12.7635 16.616 13.4517 16.616 14.2556C16.616 15.0596 16.9023 15.7478 17.4747 16.3203C18.0472 16.8928 18.7354 17.179 19.5394 17.179Z" fill="#EED1C0"/>
</g>
</svg>
