<svg width="36" height="36" viewBox="0 0 36 36" fill="none" xmlns="http://www.w3.org/2000/svg">
<g opacity="0.4">
<mask id="mask0_2_1401" style="mask-type:alpha" maskUnits="userSpaceOnUse" x="0" y="0" width="36" height="36">
<rect width="35.0803" height="35.0803" fill="#D9D9D9"/>
</mask>
<g mask="url(#mask0_2_1401)">
<path d="M17.5394 16.6407C16.3335 16.6407 15.3012 16.2113 14.4424 15.3526C13.5837 14.4938 13.1543 13.4615 13.1543 12.2556C13.1543 11.0498 13.5837 10.0174 14.4424 9.15871C15.3012 8.29997 16.3335 7.87061 17.5394 7.87061C18.7453 7.87061 19.7776 8.29997 20.6363 9.15871C21.495 10.0174 21.9244 11.0498 21.9244 12.2556C21.9244 13.4615 21.495 14.4938 20.6363 15.3526C19.7776 16.2113 18.7453 16.6407 17.5394 16.6407ZM7.30762 27.2101V24.8038C7.30762 24.2004 7.48326 23.6358 7.83455 23.1101C8.18609 22.5846 8.65882 22.1765 9.25275 21.8859C10.6321 21.2245 12.0123 20.7284 13.3933 20.3976C14.7744 20.067 16.1564 19.9017 17.5394 19.9017C18.9224 19.9017 20.3044 20.067 21.6854 20.3976C23.0665 20.7284 24.4467 21.2245 25.826 21.8859C26.4199 22.1765 26.8927 22.5846 27.2442 23.1101C27.5955 23.6358 27.7711 24.2004 27.7711 24.8038V27.2101H7.30762ZM8.7693 25.7484H26.3094V24.8038C26.3094 24.4795 26.2049 24.175 25.9959 23.8902C25.7871 23.6055 25.4981 23.3646 25.1288 23.1678C23.9258 22.5851 22.6855 22.1387 21.4077 21.8285C20.13 21.5184 18.8405 21.3634 17.5394 21.3634C16.2382 21.3634 14.9488 21.5184 13.671 21.8285C12.3933 22.1387 11.1529 22.5851 9.94997 23.1678C9.58065 23.3646 9.2916 23.6055 9.08283 23.8902C8.87381 24.175 8.7693 24.4795 8.7693 24.8038V25.7484ZM17.5394 15.179C18.3433 15.179 19.0315 14.8928 19.604 14.3203C20.1765 13.7478 20.4627 13.0596 20.4627 12.2556C20.4627 11.4517 20.1765 10.7635 19.604 10.191C19.0315 9.61853 18.3433 9.33228 17.5394 9.33228C16.7354 9.33228 16.0472 9.61853 15.4747 10.191C14.9023 10.7635 14.616 11.4517 14.616 12.2556C14.616 13.0596 14.9023 13.7478 15.4747 14.3203C16.0472 14.8928 16.7354 15.179 17.5394 15.179Z" fill="#EED1C0"/>
</g>
</g>
</svg>
