<svg width="59" height="74" viewBox="0 0 59 74" fill="none" xmlns="http://www.w3.org/2000/svg">
<path opacity="0.5" d="M0 69.4682V4.5227C0.00133898 3.71012 0.219064 2.91287 0.630367 2.21447C1.04167 1.51608 1.63141 0.942267 2.33778 0.553161C3.04414 0.164056 3.84114 -0.0260156 4.64525 0.00286234C5.44935 0.0317402 6.23097 0.278502 6.90818 0.717297L56.9342 33.181C57.5676 33.5909 58.0888 34.155 58.4498 34.8216C58.8108 35.4882 59 36.2357 59 36.9955C59 37.7552 58.8108 38.5028 58.4498 39.1693C58.0888 39.8359 57.5676 40.4001 56.9342 40.8099L6.90818 73.2827C6.23097 73.7215 5.44935 73.9683 4.64525 73.9971C3.84114 74.026 3.04414 73.8359 2.33778 73.4468C1.63141 73.0577 1.04167 72.4839 0.630367 71.7855C0.219064 71.0871 0.00133898 70.2899 0 69.4773V69.4682Z" fill="white"/>
</svg>
