<svg width="127" height="108" viewBox="0 0 127 108" fill="none" xmlns="http://www.w3.org/2000/svg">
<path opacity="0.2" d="M105.753 56.16C113.801 58.08 119.274 61.28 122.171 65.76C125.39 69.92 127 75.36 127 82.08C127 89.44 124.425 95.68 119.274 100.8C114.445 105.6 108.006 108 99.9582 108C92.2319 108 85.3105 105.12 79.1939 99.36C73.3992 93.28 70.5019 84.16 70.5019 72C70.5019 58.56 73.8821 45.6 80.6426 33.12C87.403 20.32 98.0266 9.59999 112.513 0.96001C117.02 -0.960003 120.24 -6.4373e-06 122.171 3.84C124.103 7.68001 122.976 11.04 118.791 13.92C113.962 16.8 109.455 21.28 105.27 27.36C101.085 33.12 98.3485 38.72 97.0608 44.16C96.0951 48 96.5779 50.88 98.5095 52.8C100.763 54.72 103.177 55.84 105.753 56.16ZM35.7338 56.16C43.4601 58.08 48.9328 61.28 52.1521 65.76C55.3714 69.92 56.981 75.36 56.981 82.08C56.981 89.44 54.2446 95.68 48.7719 100.8C43.621 105.6 37.1825 108 29.4563 108C21.73 108 14.8086 105.12 8.69201 99.36C2.89734 93.28 0 84.16 0 72C0 58.56 3.38023 45.6 10.1407 33.12C17.2231 20.32 28.0076 9.59999 42.4943 0.96001C47.0013 -0.960003 50.0596 -6.4373e-06 51.6692 3.84C53.6008 7.68001 52.474 11.04 48.289 13.92C43.4601 16.8 38.9531 21.28 34.7681 27.36C30.583 33.12 28.0076 38.72 27.0418 44.16C26.076 48 26.5589 50.88 28.4905 52.8C30.422 54.72 32.8365 55.84 35.7338 56.16Z" fill="#EED1C0"/>
</svg>
