<svg width="23" height="23" viewBox="0 0 23 23" fill="none" xmlns="http://www.w3.org/2000/svg">
<g clip-path="url(#clip0_2_1634)">
<path d="M9.10449 14.9346V8.06528C9.10464 7.97934 9.12789 7.89501 9.17183 7.82114C9.21576 7.74727 9.27876 7.68658 9.35421 7.64542C9.42966 7.60427 9.51479 7.58416 9.60069 7.58722C9.68658 7.59027 9.77007 7.61637 9.84241 7.66278L15.1861 11.0965C15.2537 11.1398 15.3094 11.1995 15.348 11.27C15.3865 11.3405 15.4067 11.4196 15.4067 11.4999C15.4067 11.5803 15.3865 11.6594 15.348 11.7299C15.3094 11.8004 15.2537 11.8601 15.1861 11.9034L9.84241 15.3381C9.77007 15.3845 9.68658 15.4106 9.60069 15.4136C9.51479 15.4167 9.42966 15.3966 9.35421 15.3554C9.27876 15.3143 9.21576 15.2536 9.17183 15.1797C9.12789 15.1058 9.10464 15.0215 9.10449 14.9356V14.9346Z" fill="#EED1C0"/>
<path d="M0.958008 11.5002C0.958008 5.67829 5.6778 0.958496 11.4997 0.958496C17.3216 0.958496 22.0413 5.67829 22.0413 11.5002C22.0413 17.322 17.3216 22.0418 11.4997 22.0418C5.6778 22.0418 0.958008 17.322 0.958008 11.5002ZM11.4997 2.396C9.0851 2.396 6.76942 3.35518 5.06206 5.06254C3.35469 6.76991 2.39551 9.08559 2.39551 11.5002C2.39551 13.9147 3.35469 16.2304 5.06206 17.9378C6.76942 19.6451 9.0851 20.6043 11.4997 20.6043C13.9143 20.6043 16.2299 19.6451 17.9373 17.9378C19.6447 16.2304 20.6038 13.9147 20.6038 11.5002C20.6038 9.08559 19.6447 6.76991 17.9373 5.06254C16.2299 3.35518 13.9143 2.396 11.4997 2.396Z" fill="#EED1C0"/>
</g>
<defs>
<clipPath id="clip0_2_1634">
<rect width="23" height="23" fill="white"/>
</clipPath>
</defs>
</svg>
